<?xml version="1.0" standalone="no"?>
<!DOCTYPE svg PUBLIC "-//W3C//DTD SVG 20010904//EN"
 "http://www.w3.org/TR/2001/REC-SVG-20010904/DTD/svg10.dtd">
<svg version="1.0" xmlns="http://www.w3.org/2000/svg"
 width="1200.000000pt" height="1200.000000pt" viewBox="0 0 1200.000000 1200.000000"
 preserveAspectRatio="xMidYMid meet">
<metadata>
Created by potrace 1.14, written by Peter Selinger 2001-2017
</metadata>
<g transform="translate(0.000000,1200.000000) scale(0.100000,-0.100000)"
fill="#000000" stroke="none">
<path d="M0 6000 l0 -6000 6000 0 6000 0 0 6000 0 6000 -6000 0 -6000 0 0
-6000z m8360 1260 l0 -2560 -2275 0 -2275 0 0 2560 0 2560 2275 0 2275 0 0
-2560z m-3966 -3906 c164 -55 301 -189 367 -359 124 -319 -38 -670 -367 -795
-72 -27 -239 -38 -329 -21 -206 38 -396 217 -461 436 -27 90 -25 249 5 340 60
185 208 339 386 400 113 39 281 39 399 -1z m3857 5 c119 -39 231 -121 281
-207 l18 -30 -119 -91 c-66 -50 -123 -91 -128 -90 -4 0 -22 19 -38 42 -66 91
-211 131 -314 87 -108 -47 -166 -151 -166 -300 0 -76 4 -93 33 -152 26 -53 43
-73 88 -104 50 -35 64 -39 129 -42 42 -3 90 1 112 8 44 15 143 77 143 91 0 5
-43 9 -95 9 l-95 0 0 120 0 120 250 0 250 0 0 -320 0 -320 -140 0 -140 0 0 45
0 45 -47 -31 c-192 -121 -480 -81 -654 91 -110 109 -167 242 -177 412 -6 122
8 198 59 305 82 172 249 298 441 332 79 15 234 5 309 -20z m1859 -324 l0 -355
-165 0 -165 0 0 355 0 355 165 0 165 0 0 -355z m-7577 307 c256 -126 320 -466
128 -675 -85 -91 -192 -126 -393 -127 l-88 0 0 -180 0 -180 -165 0 -165 0 0
601 0 600 308 -3 307 -3 68 -33z m3538 -259 l234 -297 3 297 2 297 170 0 170
0 0 -600 0 -600 -137 0 -138 0 -230 286 -230 285 -3 -285 -2 -286 -170 0 -170
0 0 600 0 600 133 0 134 0 234 -297z m4039 -748 l0 -155 -165 0 -165 0 0 155
0 155 165 0 165 0 0 -155z"/>
<path d="M3940 7267 l0 -2434 1607 -6 c883 -4 1849 -7 2145 -7 l538 0 0 2440
0 2440 -2145 0 -2145 0 0 -2433z m2680 2143 c321 -47 586 -182 827 -426 240
-241 401 -554 449 -869 17 -116 19 -344 4 -442 -48 -302 -169 -572 -361 -809
-163 -201 -429 -372 -691 -445 -159 -45 -236 -51 -680 -56 l-428 -5 0 -674 0
-674 -605 0 -605 0 0 2208 0 2207 1007 -2 c655 -2 1034 -6 1083 -13z"/>
<path d="M5740 7896 l0 -476 320 0 c192 0 339 4 370 11 101 22 191 110 226
222 22 69 30 312 15 403 -24 135 -82 217 -196 277 l-60 32 -337 3 -338 3 0
-475z"/>
<path d="M4106 3075 c-56 -20 -107 -65 -138 -121 -87 -160 -44 -370 92 -451
48 -29 63 -33 127 -33 86 0 125 14 181 64 65 59 87 121 87 246 0 97 -2 110
-30 164 -60 118 -197 175 -319 131z"/>
<path d="M2188 3084 c-5 -4 -8 -61 -8 -126 l0 -118 99 0 c79 0 103 3 120 18
47 37 47 160 1 206 -17 18 -35 22 -113 24 -50 2 -95 0 -99 -4z"/>
</g>
</svg>
